PathFileType	4	(X/Y/Z)	output.trc
DataRate	CameraRate	NumFrames	NumMarkers	Units	OrigDataRate	OrigDataStartFrame	OrigNumFrames
128	128	8	47	mm	128	364	2911
Frame#	Time	C7			LSHO			RSHO			CLAV			T10			LUPA			RELB			LELB			LFRA			RFRA			RWRB			RWRA			RFIN			LWRB			LWRA			LFIN			RASI			LASI			RPSI			LPSI			RANK			LANK			LMMA			LHEE			LTOE			RMMA			RHEE			RTOE			RMT5			LMT5			RKNE			LKNE			LMFC			RMFC			RFM2			LFM2			RTP2			RTP3			RTA3			LTP2			LTP3			LTA3			LBHD			RBHD			RFHD			RGTR			LGTR			
		X1	Y1	Z1	X2	Y2	Z2	X3	Y3	Z3	X4	Y4	Z4	X5	Y5	Z5	X6	Y6	Z6	X7	Y7	Z7	X8	Y8	Z8	X9	Y9	Z9	X10	Y10	Z10	X11	Y11	Z11	X12	Y12	Z12	X13	Y13	Z13	X14	Y14	Z14	X15	Y15	Z15	X16	Y16	Z16	X17	Y17	Z17	X18	Y18	Z18	X19	Y19	Z19	X20	Y20	Z20	X21	Y21	Z21	X22	Y22	Z22	X23	Y23	Z23	X24	Y24	Z24	X25	Y25	Z25	X26	Y26	Z26	X27	Y27	Z27	X28	Y28	Z28	X29	Y29	Z29	X30	Y30	Z30	X31	Y31	Z31	X32	Y32	Z32	X33	Y33	Z33	X34	Y34	Z34	X35	Y35	Z35	X36	Y36	Z36	X37	Y37	Z37	X38	Y38	Z38	X39	Y39	Z39	X40	Y40	Z40	X41	Y41	Z41	X42	Y42	Z42	X43	Y43	Z43	X44	Y44	Z44	X45	Y45	Z45	X46	Y46	Z46	X47	Y47	Z47	
364	2.83594	1564.77901	1530.48853	1562.65175	1507.10207	1256.61814	1449.15119	1149.12725	1156.52540	1026.03378	1040.94981	893.89159	912.17748	815.80869	889.09839	911.26100	813.09262	1087.28852	1056.78731	1145.38641	1142.19273	72.98613	69.97113	73.05164	42.31733	31.02289	67.27153	43.69211	36.09136	24.79694	27.28380	502.75790	515.83885	529.35202	523.33827	665.86662	665.71788	312.64563	371.04009	336.29006	301.21566	335.22520	328.95512	1452.63976	1852.63976	1482.63976	1452.63976	1852.63976	1622.63976	1652.63976	1852.63976	1622.63976	893.89159	889.09839	
365	2.84375	1564.77536	1530.51095	1562.65605	1507.02108	1256.67572	1449.06137	1149.12567	1156.50347	1025.96199	1041.05871	893.88087	912.20196	815.73875	889.09155	911.16897	813.12531	1087.36848	1056.82550	1145.35838	1142.22229	72.95643	69.96328	73.01537	42.30577	31.02428	67.29391	43.72650	36.09252	24.83178	27.16015	502.67280	515.86386	529.37312	523.35205	665.88224	666.35209	312.69928	371.00466	336.19549	301.16941	335.15643	328.75584	1452.64745	1852.64745	1482.64745	1452.64745	1852.64745	1622.64745	1652.64745	1852.64745	1622.64745	893.88087	889.09155	
366	2.85156	1564.81121	1530.51747	1562.66725	1507.01342	1256.61500	1448.99110	1149.14229	1156.52812	1025.95860	1041.02243	893.92244	912.17548	815.70256	889.06262	911.13959	813.05308	1087.37210	1056.82086	1145.35710	1142.24924	73.02392	70.00280	72.98189	42.31992	31.04163	67.29473	43.68109	36.05116	24.82593	27.23838	502.70576	515.95632	529.34434	523.35381	666.08524	665.65940	312.14676	371.04652	336.48555	301.16390	335.10369	328.73122	1452.66531	1852.66531	1482.66531	1452.66531	1852.66531	1622.66531	1652.66531	1852.66531	1622.66531	893.92244	889.06262	
367	2.85938	1564.83664	1530.51114	1562.65696	1506.93922	1256.63152	1449.01802	1149.11586	1156.52908	1025.96092	1040.97491	893.79872	912.13396	815.63430	889.01237	911.07420	812.95685	1087.36691	1056.75732	1145.37307	1142.22444	73.02281	69.98678	72.96057	42.28552	31.01884	67.27879	43.71955	36.14142	24.79365	27.15326	502.67810	515.87871	529.34335	523.33039	665.94000	665.66912	312.73268	371.04900	336.19990	301.18165	335.16264	328.77897	1452.66825	1852.66825	1482.66825	1452.66825	1852.66825	1622.66825	1652.66825	1852.66825	1622.66825	893.79872	889.01237	
368	2.86719	1564.81538	1530.54305	1562.64413	1506.86836	1256.72391	1448.87908	1149.07453	1156.51424	1025.88093	1040.92363	893.73283	912.02938	815.58672	888.99122	911.08368	812.92319	1087.32593	1056.80968	1145.39979	1142.24176	72.94127	69.99828	72.95619	42.31097	31.05503	67.26326	43.69156	35.97884	24.77969	27.23573	502.74770	515.89328	529.32035	523.31066	666.00357	665.71342	312.62906	371.04988	336.24539	301.24789	335.17652	328.92798	1452.66752	1852.66752	1482.66752	1452.66752	1852.66752	1622.66752	1652.66752	1852.66752	1622.66752	893.73283	888.99122	
369	2.87500	1564.82853	1530.53839	1562.61781	1506.79229	1256.74794	1448.73167	1149.04734	1156.50791	1025.87503	1040.87244	893.68472	911.96119	815.53555	888.92977	910.97551	812.81103	1087.25653	1056.75180	1145.37365	1142.17938	72.89991	69.98932	72.99622	42.27523	31.03528	67.25528	43.67265	35.97900	24.76276	27.27948	502.73737	515.81160	529.32114	523.33145	665.92229	665.64546	312.05085	370.90466	336.40442	301.24236	335.16703	328.87121	1452.66158	1852.66158	1482.66158	1452.66158	1852.66158	1622.66158	1652.66158	1852.66158	1622.66158	893.68472	888.92977	
370	2.88281	1564.84743	1530.54958	1562.61844	1506.79579	1256.74886	1448.59039	1149.04952	1156.51026	1025.82096	1040.83043	893.65823	911.93781	815.45078	888.88346	910.98962	812.76047	1087.29188	1056.81299	1145.37205	1142.25977	72.98157	69.95346	72.98264	42.27838	31.00647	67.23310	43.67249	35.98788	24.75876	27.25085	502.71475	515.68888	529.31968	523.33305	666.01323	665.46814	312.49363	371.02890	336.22680	301.19281	335.10377	328.80084	1452.67182	1852.67182	1482.67182	1452.67182	1852.67182	1622.67182	1652.67182	1852.67182	1622.67182	893.65823	888.88346	
371	2.89062	1564.86916	1530.55968	1562.59938	1506.73893	1256.73504	1448.49988	1149.01786	1156.48548	1025.79529	1040.79394	893.58641	911.87692	815.41938	888.89077	910.81890	812.72565	1087.26846	1056.78405	1145.41197	1142.22272	72.97287	70.04008	73.08843	42.31540	31.07663	67.28799	43.63683	35.95392	24.80943	27.12608	502.67128	515.81223	529.31991	523.32057	666.00287	665.69553	312.14692	370.91640	336.43598	301.16915	335.09667	328.74395	1452.67607	1852.67607	1482.67607	1452.67607	1852.67607	1622.67607	1652.67607	1852.67607	1622.67607	893.58641	888.89077	
